<svg xmlns="http://www.w3.org/2000/svg" viewBox="0 0 100 100">
  <circle cx="50" cy="50" r="48" fill="#5F7A6A" opacity="0.1"/>
  <path d="M50 20 C65 35 65 65 50 80 C35 65 35 35 50 20 Z" fill="#5F7A6A"/>
  <path d="M50 20 C57 35 57 65 50 80 Z" fill="#4B6254"/>
  <path d="M50 35 C53 40 56 42 59 40" stroke="#E6EBE6" stroke-width="1.5" stroke-linecap="round" fill="none"/>
  <path d="M50 48 C53 53 56 55 59 53" stroke="#E6EBE6" stroke-width="1.5" stroke-linecap="round" fill="none"/>
  <path d="M50 60 C53 65 56 67 59 65" stroke="#E6EBE6" stroke-width="1.5" stroke-linecap="round" fill="none"/>
  <path d="M50 35 C47 40 44 42 41 40" stroke="#E6EBE6" stroke-width="1.5" stroke-linecap="round" fill="none"/>
  <path d="M50 48 C47 53 44 55 41 53" stroke="#E6EBE6" stroke-width="1.5" stroke-linecap="round" fill="none"/>
  <path d="M50 60 C47 65 44 67 41 65" stroke="#E6EBE6" stroke-width="1.5" stroke-linecap="round" fill="none"/>
</svg>
